# xmcd CD database file
#
# Track frame offsets:
#	183
#	16870
#	32718
#	64208
#	80088
#	98370
#	119818
#	136355
#	156188
#	182110
#	195948
#	216525
#
# Disc length: 3115 seconds
#
# Revision: 0
# Processed by: cddbd v1.4PL0 Copyright (c) Steve Scherf et al.
# Submitted via: CDex 1.40Release
#
DISCID=a60c290c
DTITLE=Bill Wharton - South of the Blues
DYEAR=1994
DGENRE=Blues
TTITLE0=Swamp Boogie
TTITLE1=She's on fire
TTITLE2=Hurricane Blues
TTITLE3=Lazarus
TTITLE4=Jones and a half
TTITLE5=Got to rumba
TTITLE6=Great big fanny
TTITLE7=Stir your pot
TTITLE8=Cadillac of a woman
TTITLE9=Blind boy Billy
TTITLE10=Doggin' my cat
TTITLE11=Rocking slow
EXTD=YEAR: 1994 ID3G: 0
EXTT0=
EXTT1=
EXTT2=
EXTT3=
EXTT4=
EXTT5=
EXTT6=
EXTT7=
EXTT8=
EXTT9=
EXTT10=
EXTT11=
PLAYORDER=
